<svg id="svg" xmlns="http://www.w3.org/2000/svg" xmlns:xlink="http://www.w3.org/1999/xlink" width="400" height="392" viewBox="0, 0, 400,392"><g id="svgg"><path id="path0" d="M174.857 0.795 C 148.197 3.657,111.296 17.151,89.928 31.853 C 87.070 33.819,84.294 35.429,83.761 35.429 C 83.227 35.429,82.049 36.457,81.143 37.714 C 80.237 38.971,78.838 40.000,78.033 40.000 C 77.229 40.000,76.571 40.429,76.571 40.953 C 76.571 41.477,73.854 43.777,70.532 46.065 C 64.368 50.311,46.857 67.592,46.857 69.430 C 46.857 69.988,45.700 71.515,44.286 72.822 C 41.424 75.468,36.571 81.098,36.571 81.772 C 36.571 82.011,33.706 86.603,30.204 91.976 C -0.908 139.705,-9.224 212.043,10.977 259.216 C 11.970 261.533,12.885 263.943,13.011 264.571 C 14.585 272.398,31.776 301.615,42.930 315.421 C 46.347 319.650,49.143 323.499,49.143 323.976 C 49.143 324.452,50.557 326.518,52.286 328.568 C 54.014 330.618,57.955 335.923,61.044 340.357 C 64.132 344.790,68.083 349.470,69.822 350.756 C 71.562 352.042,73.921 354.697,75.064 356.656 C 76.207 358.615,79.096 361.220,81.484 362.446 C 83.872 363.672,86.120 365.442,86.480 366.380 C 87.273 368.446,92.773 371.429,95.789 371.429 C 96.993 371.429,99.222 372.408,100.743 373.604 C 102.264 374.801,105.548 376.337,108.040 377.019 C 110.532 377.700,114.297 379.318,116.407 380.614 C 120.250 382.976,132.220 386.998,144.000 389.887 C 154.295 392.412,221.549 392.044,234.569 389.392 C 243.949 387.482,262.466 382.536,266.286 380.922 C 267.229 380.523,268.257 380.098,268.571 379.975 C 281.274 375.043,302.655 364.105,311.088 358.227 C 332.221 343.495,341.469 335.378,352.571 321.817 C 355.086 318.746,357.661 315.666,358.295 314.974 C 359.932 313.184,362.587 309.389,370.043 298.188 C 373.998 292.244,379.317 286.092,383.533 282.584 C 390.877 276.471,394.286 271.023,394.286 265.395 C 394.286 263.524,395.162 260.002,396.232 257.568 C 399.933 249.152,400.695 173.852,397.242 157.714 C 392.693 136.453,384.885 116.215,374.190 97.968 C 372.043 94.304,370.286 90.582,370.286 89.696 C 370.286 84.590,364.935 74.578,358.752 68.115 C 355.083 64.280,350.232 58.748,347.972 55.822 C 339.981 45.477,324.543 34.702,312.677 31.190 C 309.476 30.243,303.514 27.523,299.429 25.146 C 295.343 22.769,290.200 20.067,288.000 19.143 C 285.800 18.218,281.429 16.301,278.286 14.883 C 275.143 13.466,270.963 11.600,268.997 10.737 C 250.854 2.775,203.247 -2.252,174.857 0.795 M237.714 9.609 C 251.309 12.305,280.687 22.981,294.294 30.169 C 300.585 33.492,307.785 36.864,310.294 37.662 C 317.361 39.908,320.222 42.072,319.429 44.571 C 318.937 46.119,319.648 47.309,321.943 48.776 C 326.834 51.904,331.659 56.988,330.900 58.216 C 330.527 58.820,331.277 59.879,332.566 60.569 C 334.730 61.726,334.767 61.967,333.056 63.678 C 331.345 65.390,331.399 65.682,333.756 67.460 C 335.595 68.847,335.919 69.629,334.913 70.251 C 334.144 70.726,333.769 72.086,334.079 73.272 C 334.518 74.950,334.025 75.429,331.857 75.429 C 328.654 75.429,326.893 78.598,329.262 80.098 C 330.471 80.864,330.258 81.112,328.379 81.125 C 320.728 81.179,320.406 84.719,327.714 88.439 C 332.495 90.873,339.884 97.143,337.971 97.143 C 337.578 97.143,335.046 95.668,332.343 93.866 C 322.530 87.324,312.164 86.230,313.584 91.887 C 314.236 94.485,314.156 94.510,308.986 93.327 C 304.522 92.306,303.519 92.406,302.362 93.988 C 301.233 95.532,300.163 95.665,296.140 94.761 C 288.008 92.934,286.392 96.399,293.367 100.710 C 304.478 107.577,308.088 113.144,301.429 113.141 C 298.263 113.139,297.228 112.368,294.422 107.928 C 288.675 98.830,278.246 93.094,273.647 96.500 C 271.538 98.062,271.847 98.539,279.947 106.210 C 286.088 112.026,288.118 114.625,287.221 115.522 C 285.572 117.171,278.835 112.803,272.000 105.652 C 264.593 97.903,258.175 95.364,256.046 99.342 C 255.044 101.215,255.970 102.625,262.292 108.855 C 270.284 116.730,271.276 118.857,266.959 118.857 C 264.047 118.857,258.286 113.105,258.286 110.198 C 258.286 109.303,257.809 108.571,257.227 108.571 C 256.644 108.571,256.001 107.731,255.798 106.703 C 255.378 104.579,240.482 98.172,238.094 99.089 C 235.298 100.162,236.516 102.519,244.103 110.714 C 250.163 117.259,251.265 118.992,249.741 119.577 C 246.787 120.710,243.300 118.071,237.714 110.475 C 230.399 100.527,216.000 93.702,216.000 100.183 C 216.000 101.092,218.829 105.337,222.286 109.616 C 228.987 117.910,229.828 120.000,226.463 120.000 C 223.752 120.000,221.565 117.462,217.797 109.945 C 215.622 105.605,213.256 102.934,209.443 100.516 C 200.884 95.088,195.141 96.529,199.865 102.920 C 201.197 104.720,202.286 106.710,202.286 107.342 C 202.286 107.974,203.314 109.041,204.571 109.714 C 205.829 110.387,206.857 111.691,206.857 112.612 C 206.857 113.532,207.311 114.286,207.867 114.286 C 208.422 114.286,209.194 115.186,209.582 116.286 C 209.970 117.386,210.587 118.929,210.953 119.714 C 213.879 125.990,201.310 118.249,195.299 110.073 C 187.118 98.943,185.117 97.143,180.929 97.143 C 175.714 97.143,175.919 100.038,181.741 108.611 C 188.058 117.913,188.328 118.857,184.675 118.857 C 182.334 118.857,181.306 117.981,179.982 114.857 C 179.049 112.657,177.551 109.117,176.653 106.990 C 172.510 97.175,163.889 91.886,159.889 96.705 C 158.573 98.291,158.964 99.714,162.631 106.705 C 167.655 116.283,167.652 116.261,164.132 116.073 C 160.008 115.853,158.421 113.948,155.525 105.743 C 151.850 95.334,144.779 90.274,141.769 95.898 C 140.541 98.193,141.948 103.574,145.647 110.727 C 147.373 114.065,147.361 114.285,145.458 114.268 C 141.732 114.236,140.652 112.544,137.199 101.324 C 133.558 89.497,131.622 86.416,128.569 87.588 C 124.613 89.106,124.334 97.255,127.916 106.646 C 129.794 111.571,129.492 112.335,126.011 111.462 C 122.468 110.572,121.077 108.929,121.948 106.661 C 122.274 105.810,122.032 104.477,121.408 103.700 C 120.785 102.922,120.389 99.714,120.528 96.571 C 120.792 90.601,118.708 85.714,115.898 85.714 C 112.719 85.714,110.525 92.550,111.241 100.223 C 111.611 104.186,111.700 107.429,111.439 107.429 C 105.388 107.429,103.661 100.737,106.407 87.933 C 108.185 79.641,105.647 76.690,100.857 81.480 C 98.065 84.273,97.685 85.593,97.312 93.796 C 96.920 102.426,96.747 102.962,94.448 102.635 C 90.862 102.124,90.431 93.067,93.674 86.370 C 96.295 80.955,95.808 77.714,92.374 77.714 C 86.407 77.714,83.448 83.134,83.435 94.084 C 83.430 98.715,83.109 99.535,81.429 99.216 C 78.694 98.697,78.144 89.632,80.505 83.982 C 83.297 77.302,80.016 75.309,74.805 80.519 C 72.392 82.933,72.000 84.382,72.000 90.889 C 72.000 97.477,71.742 98.404,70.000 98.070 C 67.349 97.561,66.951 90.968,69.269 85.955 C 72.173 79.674,66.316 74.404,62.783 80.119 C 62.312 80.882,60.822 81.176,59.361 80.794 C 55.835 79.872,53.165 81.522,51.439 85.689 C 50.249 88.562,49.766 88.890,48.711 87.543 C 48.006 86.643,46.436 85.735,45.222 85.525 C 43.386 85.206,44.487 83.388,51.763 74.715 C 73.873 48.363,103.019 28.331,133.777 18.347 C 139.714 16.420,145.373 14.389,146.353 13.834 C 148.340 12.708,161.504 9.765,172.000 8.099 C 182.990 6.355,226.329 7.351,237.714 9.609 M370.180 105.200 C 380.338 123.353,388.455 146.452,391.444 165.714 C 394.335 184.336,393.275 224.740,389.782 229.104 C 389.261 229.754,388.469 232.000,388.020 234.096 C 387.307 237.427,386.857 237.819,384.434 237.211 C 382.534 236.734,381.455 237.060,380.999 238.250 C 380.563 239.384,379.456 239.764,377.796 239.347 C 373.596 238.293,370.666 246.055,370.323 259.143 C 370.303 259.929,369.886 260.571,369.398 260.571 C 368.910 260.571,368.697 258.625,368.924 256.246 C 369.218 253.156,368.679 251.115,367.035 249.103 C 363.743 245.073,362.189 247.225,361.085 257.343 C 359.985 267.423,359.449 269.899,357.496 273.904 C 355.733 277.521,352.232 279.327,353.684 275.870 C 357.761 266.168,356.553 255.470,351.231 254.134 C 347.298 253.147,347.165 253.476,345.600 267.975 C 344.094 281.924,343.654 283.429,341.075 283.429 C 339.093 283.429,339.007 280.935,340.714 272.977 C 341.959 267.172,341.903 266.902,338.936 264.349 C 333.381 259.571,330.839 262.933,328.581 278.048 C 327.344 286.329,326.482 288.968,324.488 290.583 C 321.025 293.387,320.678 292.531,322.773 286.360 C 326.247 276.128,320.634 264.672,314.939 270.367 C 313.614 271.692,313.143 274.495,313.143 281.054 C 313.143 291.127,311.667 296.782,308.260 299.760 C 304.948 302.655,304.053 300.940,305.194 293.887 C 306.687 284.667,305.667 281.345,301.079 280.484 C 295.532 279.443,295.279 279.929,294.469 293.163 C 293.633 306.826,292.597 309.714,288.531 309.714 C 285.794 309.714,285.714 309.477,285.714 301.371 C 285.714 292.868,284.638 290.286,281.091 290.286 C 276.933 290.286,275.037 294.497,274.515 304.890 C 273.999 315.159,273.071 317.717,269.860 317.711 C 268.372 317.708,268.000 316.474,268.000 311.545 C 268.000 304.503,265.440 300.571,260.856 300.571 L 258.066 300.571 258.864 312.288 C 259.962 328.398,252.549 335.826,250.040 321.130 C 249.182 316.104,245.399 310.857,242.633 310.857 C 239.498 310.857,238.359 316.174,239.868 323.766 C 240.645 327.678,240.938 331.774,240.519 332.868 C 239.359 335.890,236.571 335.293,236.571 332.023 C 236.571 327.851,233.180 320.100,230.797 318.825 C 227.403 317.009,223.592 323.153,225.651 327.121 C 229.308 334.170,229.935 337.972,228.045 341.628 C 224.306 348.857,215.722 347.141,212.541 338.529 C 210.130 332.002,207.434 329.365,204.836 330.992 C 201.899 332.830,201.838 337.394,204.663 343.959 C 207.117 349.665,207.126 349.839,205.016 351.452 C 201.542 354.109,199.794 352.990,196.050 345.713 C 192.155 338.142,188.595 336.256,186.300 340.545 C 184.726 343.486,185.647 346.795,189.455 351.873 C 191.644 354.793,192.075 356.200,191.206 357.588 C 188.998 361.111,185.774 360.374,183.177 355.753 C 179.440 349.105,175.187 345.520,172.806 347.012 C 169.663 348.982,169.921 352.516,173.651 358.577 C 177.856 365.412,177.888 365.714,174.395 365.714 C 172.256 365.714,170.861 364.321,168.099 359.429 C 164.289 352.677,163.432 352.160,160.653 354.939 C 158.094 357.498,158.429 361.336,161.621 366.040 C 163.971 369.503,164.121 370.214,162.619 370.790 C 160.314 371.675,158.225 369.850,154.744 363.909 C 153.182 361.245,151.090 358.752,150.093 358.370 C 146.739 357.083,144.053 361.577,146.634 364.157 C 147.071 364.595,147.429 365.895,147.429 367.048 C 147.429 368.200,147.888 369.143,148.449 369.143 C 149.010 369.143,149.766 369.914,150.128 370.857 C 151.501 374.435,147.308 372.430,144.275 368.057 C 139.626 361.356,136.142 360.800,135.699 366.687 C 135.440 370.114,134.434 369.766,131.290 365.161 C 126.755 358.518,124.044 358.525,124.233 365.178 C 124.295 367.359,124.071 369.143,123.735 369.143 C 122.816 369.143,118.857 364.363,118.857 363.254 C 118.857 362.721,117.761 362.286,116.421 362.286 C 114.238 362.286,114.049 362.762,114.598 366.857 C 115.425 373.020,114.088 372.612,110.857 365.714 C 108.076 359.775,105.361 358.349,104.331 362.286 C 103.473 365.567,102.267 365.126,99.564 360.544 C 96.906 356.040,94.194 354.491,92.293 356.392 C 90.654 358.032,88.000 355.988,88.000 353.086 C 88.000 350.356,82.202 345.715,81.073 347.541 C 80.012 349.258,77.714 347.829,77.714 345.451 C 77.714 342.903,74.354 339.429,71.890 339.429 C 70.767 339.429,67.782 336.729,65.256 333.429 C 62.730 330.129,55.715 321.000,49.668 313.143 C 36.198 295.641,27.847 281.707,22.269 267.429 C 19.936 261.457,17.488 255.286,16.829 253.714 C 16.170 252.143,15.732 250.417,15.856 249.880 C 15.979 249.342,15.485 248.185,14.757 247.308 C 14.030 246.432,13.817 245.714,14.286 245.714 C 14.754 245.714,14.486 244.930,13.691 243.972 C 12.896 243.014,12.572 241.905,12.970 241.506 C 13.368 241.108,13.205 240.192,12.606 239.470 C 5.119 230.449,6.193 155.130,13.946 145.479 C 14.556 144.720,14.798 143.686,14.485 143.180 C 14.173 142.674,14.663 141.240,15.575 139.993 C 16.924 138.148,17.416 138.022,18.215 139.315 C 19.732 141.769,22.824 139.880,23.595 136.027 C 24.301 132.497,25.568 131.629,26.891 133.770 C 27.850 135.320,30.857 132.947,30.857 130.640 C 30.857 129.535,31.579 129.218,33.040 129.682 C 34.778 130.233,35.494 129.552,36.557 126.330 C 37.910 122.229,39.253 121.295,40.617 123.503 C 41.111 124.302,42.098 124.061,43.492 122.800 C 45.469 121.010,45.744 121.009,47.511 122.776 C 50.045 125.310,51.613 124.613,53.945 119.917 L 55.890 116.000 55.945 119.574 C 56.094 129.291,59.938 127.342,67.482 113.725 C 70.793 107.748,74.064 102.865,74.751 102.875 C 78.734 102.930,78.451 104.902,73.624 110.714 C 67.002 118.688,65.171 128.000,70.225 128.000 C 72.007 128.000,76.571 122.727,76.571 120.667 C 76.571 117.128,84.823 106.286,87.517 106.286 C 91.409 106.286,91.062 107.524,84.410 117.382 C 78.242 126.523,77.973 129.291,83.179 130.069 C 85.050 130.348,86.973 128.293,92.262 120.355 C 98.120 111.564,99.437 110.240,102.629 109.928 C 107.440 109.456,107.270 110.794,101.557 118.362 C 95.923 125.824,94.746 132.883,99.033 133.494 C 101.781 133.885,109.681 123.986,112.216 116.976 C 113.765 112.692,117.705 111.783,121.782 114.767 C 123.928 116.338,123.848 116.608,119.322 123.053 C 110.828 135.148,110.469 138.286,117.579 138.286 C 120.889 138.286,121.779 137.217,128.050 125.714 C 131.857 118.732,132.355 118.275,136.336 118.114 C 141.261 117.915,141.983 120.166,138.447 124.703 C 131.413 133.729,131.064 141.714,137.704 141.714 C 138.865 141.714,145.143 134.453,145.143 133.110 C 145.143 132.430,146.463 130.101,148.077 127.936 C 149.691 125.771,151.431 123.272,151.943 122.382 C 152.681 121.100,161.143 119.629,161.143 120.783 C 161.143 120.945,159.805 124.049,158.171 127.682 C 153.388 138.309,152.963 140.475,155.193 142.859 C 159.097 147.033,162.762 144.709,165.714 136.186 C 170.476 122.436,170.653 122.228,176.874 123.042 C 179.850 123.432,182.413 123.849,182.570 123.969 C 182.726 124.089,181.568 127.349,179.998 131.213 C 176.433 139.986,176.266 144.711,179.485 145.732 C 183.486 147.002,186.703 143.605,190.725 133.865 L 194.562 124.571 198.995 124.571 C 204.109 124.571,203.989 124.097,201.580 134.764 C 199.835 142.489,199.845 143.077,201.757 145.190 C 206.212 150.113,210.203 146.282,213.007 134.391 C 215.167 125.227,215.836 124.571,223.021 124.571 L 227.569 124.571 226.782 130.000 C 226.349 132.986,225.689 135.943,225.316 136.571 C 222.831 140.757,224.935 145.391,228.976 144.631 C 230.325 144.377,231.801 144.132,232.256 144.085 C 233.871 143.919,236.587 137.165,237.440 131.196 C 238.303 125.160,238.318 125.142,242.746 124.778 L 247.187 124.414 246.391 133.194 C 245.503 142.995,246.972 146.286,252.235 146.286 C 255.950 146.286,258.545 139.917,258.640 130.571 L 258.712 123.429 263.070 123.429 L 267.429 123.429 267.429 131.771 C 267.429 140.685,268.473 142.857,272.760 142.857 C 276.471 142.857,277.714 139.612,277.714 129.923 C 277.714 121.544,277.764 121.400,280.857 120.806 C 284.959 120.018,284.781 119.671,285.714 130.286 C 286.627 140.666,286.846 141.109,290.608 140.165 C 294.327 139.231,296.000 134.946,296.000 126.354 C 296.000 120.544,296.392 118.951,297.970 118.346 C 300.724 117.289,302.857 120.633,302.857 126.008 C 302.857 131.854,304.588 134.857,307.959 134.857 C 312.135 134.857,314.630 131.720,313.789 127.527 C 311.620 116.707,311.616 115.107,313.759 113.540 C 317.745 110.626,320.510 113.758,322.714 123.684 C 323.643 127.868,324.665 129.811,326.079 130.083 C 331.784 131.182,333.197 122.569,328.624 114.571 C 326.100 110.157,326.034 109.714,327.907 109.714 C 329.271 109.714,331.237 112.127,333.726 116.857 C 335.793 120.786,337.615 124.164,337.774 124.365 C 337.933 124.566,339.142 124.056,340.460 123.233 C 343.642 121.246,343.700 113.868,340.571 109.143 C 335.546 101.555,340.116 102.074,345.605 109.714 C 349.899 115.691,350.430 116.026,353.012 114.391 C 354.105 113.699,354.344 112.387,353.783 110.154 C 352.977 106.942,352.988 106.934,355.343 109.065 C 357.633 111.138,357.793 111.140,360.000 109.143 C 362.725 106.676,362.943 103.682,360.541 101.689 C 359.008 100.416,359.111 100.068,361.398 98.811 C 365.169 96.738,365.635 97.077,370.180 105.200 M369.143 286.204 C 369.143 290.125,348.969 316.181,336.134 328.839 C 313.606 351.055,272.538 373.957,248.729 377.581 C 248.014 377.689,246.876 378.124,246.202 378.546 C 238.469 383.386,162.286 387.935,162.286 383.558 C 162.286 381.386,162.642 381.350,168.364 382.939 C 173.320 384.315,176.000 382.991,176.000 379.166 C 176.000 377.446,176.483 377.103,178.000 377.745 C 182.084 379.473,190.237 377.869,189.334 375.515 C 188.900 374.384,190.378 373.848,194.985 373.465 C 202.183 372.869,204.553 371.304,202.326 368.620 C 201.038 367.068,201.606 366.857,207.070 366.857 C 217.431 366.857,220.703 362.138,211.429 360.571 C 206.440 359.729,204.767 358.204,206.706 356.266 C 207.609 355.362,209.507 355.744,213.566 357.645 C 221.417 361.322,233.143 360.638,233.143 356.503 C 233.143 355.365,227.599 352.614,226.000 352.958 C 224.772 353.223,224.940 351.118,226.210 350.333 C 226.797 349.970,229.240 350.350,231.640 351.177 C 237.542 353.210,246.286 351.281,246.286 347.945 C 246.286 346.346,244.911 345.239,241.429 344.035 C 236.705 342.402,234.968 340.571,238.142 340.571 C 239.006 340.571,241.899 341.343,244.571 342.286 C 258.042 347.038,268.634 342.024,256.857 336.469 L 250.857 333.639 262.612 334.257 C 272.076 334.754,275.061 334.515,277.931 333.031 L 281.494 331.188 276.176 327.878 C 267.329 322.371,269.577 320.931,280.000 325.428 C 290.776 330.078,300.965 323.342,291.143 318.062 C 287.687 316.204,287.609 316.038,290.018 315.665 C 291.443 315.445,294.332 316.330,296.439 317.632 C 301.444 320.726,307.403 320.677,311.431 317.508 L 314.598 315.017 312.030 312.937 C 310.617 311.793,308.588 310.857,307.520 310.857 C 306.453 310.857,304.629 310.162,303.467 309.312 C 298.944 306.005,306.909 305.924,314.214 309.203 C 324.945 314.019,331.914 309.057,324.639 301.782 C 323.345 300.487,322.286 298.914,322.286 298.286 C 322.286 295.967,325.373 297.254,329.143 301.143 C 333.558 305.698,335.390 306.007,339.429 302.880 C 341.544 301.241,341.989 300.252,341.143 299.065 C 334.884 290.293,334.989 290.860,339.431 289.773 C 341.776 289.200,342.635 289.697,344.244 292.558 C 348.280 299.735,355.061 297.113,353.675 288.910 C 352.871 284.152,354.504 282.995,356.571 286.857 C 358.426 290.322,364.317 289.985,365.226 286.362 C 365.935 283.538,369.143 283.409,369.143 286.204 " stroke="none" fill="#000000" fill-rule="evenodd"></path></g></svg>